<svg width="30" height="30" viewBox="0 0 30 30" fill="none" xmlns="http://www.w3.org/2000/svg">
<path fill-rule="evenodd" clip-rule="evenodd" d="M2.25 14.75C2.25 7.70837 7.95837 2 15 2C22.0372 2 27.75 7.79784 27.75 14.75C27.75 19.0627 25.8375 21.7513 24.8776 22.831C24.5107 23.2437 24.5478 23.8758 24.9606 24.2428C25.3733 24.6097 26.0054 24.5726 26.3724 24.1598C27.5461 22.8396 29.75 19.6979 29.75 14.75C29.75 6.70216 23.1506 0 15 0C6.8538 0 0.25 6.6038 0.25 14.75C0.25 22.9006 6.95216 29.5 15 29.5C19.0067 29.5 21.4334 27.98 22.5218 26.016C23.0526 25.0582 23.2396 24.0293 23.1346 23.1127C23.0582 22.4459 22.8167 21.7812 22.384 21.2691L22.3959 21.2412C22.6401 20.6715 22.443 20.0087 21.9273 19.6649L19.679 18.166C19.0882 17.7721 18.2899 17.9318 17.896 18.5226L17.3669 19.3162C17.2613 19.4746 17.1217 19.6098 16.9376 19.6584C16.3347 19.8177 14.7341 19.8897 12.2972 17.4528C9.86035 15.0159 9.93227 13.4153 10.0916 12.8124C10.1402 12.6283 10.2754 12.4887 10.4338 12.3831L11.2274 11.854C11.8182 11.4601 11.9779 10.6618 11.584 10.071L10.0851 7.82269C9.74133 7.30697 9.07852 7.10994 8.50882 7.3541L7.83269 7.64387C7.31906 7.864 6.90008 8.25905 6.65017 8.75887C6.44138 9.17645 6.27955 9.61619 6.25762 10.0825C6.18853 11.5522 6.51079 15.173 10.5439 19.2061C14.577 23.2392 18.1978 23.5615 19.6675 23.4924C20.1338 23.4704 20.5735 23.3086 20.9911 23.0998C21.0254 23.0827 21.0592 23.0647 21.0925 23.046C21.1162 23.1341 21.1352 23.232 21.1476 23.3404C21.2037 23.83 21.1076 24.4418 20.7725 25.0465C20.1291 26.2075 18.4933 27.5 15 27.5C8.04784 27.5 2.25 21.7872 2.25 14.75ZM14 6C14 5.44772 14.4477 5 15 5C20.3848 5 24.75 9.36522 24.75 14.75C24.75 15.3023 24.3023 15.75 23.75 15.75C23.1977 15.75 22.75 15.3023 22.75 14.75C22.75 10.4698 19.2802 7 15 7C14.4477 7 14 6.55228 14 6ZM15 8.75C14.4477 8.75 14 9.19771 14 9.75C14 10.3023 14.4477 10.75 15 10.75C17.2091 10.75 19 12.5409 19 14.75C19 15.3023 19.4477 15.75 20 15.75C20.5523 15.75 21 15.3023 21 14.75C21 11.4363 18.3137 8.75 15 8.75Z" fill="#182639"/>
</svg>
